<?xml version="1.0" encoding="utf-8"?>
<!-- Generator: Adobe Illustrator 27.2.0, SVG Export Plug-In . SVG Version: 6.00 Build 0)  -->
<svg version="1.1" id="Layer_1" xmlns="http://www.w3.org/2000/svg" xmlns:xlink="http://www.w3.org/1999/xlink" x="0px" y="0px"
	 viewBox="0 0 742.7 201.91" style="enable-background:new 0 0 742.7 201.91;" xml:space="preserve">
<style type="text/css">
	.st0{fill:url(#SVGID_1_);}
	.st1{fill:url(#SVGID_00000134963056299329250920000009946772811033818790_);}
	.st2{fill:url(#SVGID_00000153682540690604148740000005026184028164447671_);}
	.st3{fill:url(#SVGID_00000083056388860384442150000015776227335655899050_);}
	.st4{fill:url(#SVGID_00000123425514737254032750000000137305811908982425_);}
	.st5{fill:url(#SVGID_00000124882776879227812330000010944973216331064245_);}
	.st6{fill:url(#SVGID_00000157287313643114589350000001629140734079972525_);}
	.st7{opacity:0.8;fill:url(#Polygon_71_00000164513990771311196500000011563333408241254327_);enable-background:new    ;}
	.st8{opacity:0.8;fill:url(#Polygon_72_00000026843698192217576280000013622100946287700386_);enable-background:new    ;}
	.st9{opacity:0.8;fill:url(#Polygon_73_00000004503898831183900170000006483194345561268648_);enable-background:new    ;}
	.st10{fill-rule:evenodd;clip-rule:evenodd;fill:#FFFFFF;}
	.st11{fill-rule:evenodd;clip-rule:evenodd;fill:url(#SVGID_00000038375653356300295020000002576929420737907389_);}
	.st12{fill:#FFFFFF;}
</style>
<g>
	<linearGradient id="SVGID_1_" gradientUnits="userSpaceOnUse" x1="67.3922" y1="72.0246" x2="67.3922" y2="186.298">
		<stop  offset="0" style="stop-color:#F28F3F"/>
		<stop  offset="0.4966" style="stop-color:#ED693C"/>
		<stop  offset="1" style="stop-color:#E83E39"/>
	</linearGradient>
	<path class="st0" d="M95.72,159.85H38.58L27.31,186.3H5.44L56.86,72.02h20.9l51.59,114.27h-22.2L95.72,159.85z M88.7,143.2
		L67.15,93.25L45.76,143.2H88.7z"/>
	
		<linearGradient id="SVGID_00000088813188631858659320000014373958473485265549_" gradientUnits="userSpaceOnUse" x1="160.221" y1="103.1339" x2="160.221" y2="186.298">
		<stop  offset="0" style="stop-color:#F28F3F"/>
		<stop  offset="0.4966" style="stop-color:#ED693C"/>
		<stop  offset="1" style="stop-color:#E83E39"/>
	</linearGradient>
	<path style="fill:url(#SVGID_00000088813188631858659320000014373958473485265549_);" d="M184.02,103.13v18.33
		c-1.69-0.31-3.08-0.46-4.47-0.46c-14.63,0-23.87,8.62-23.87,25.41v39.89h-19.25v-82.24h18.33v12.01
		C160.3,107.45,170.31,103.13,184.02,103.13z"/>
	
		<linearGradient id="SVGID_00000147929142273978246260000000530515950099308189_" gradientUnits="userSpaceOnUse" x1="221.8975" y1="85.8859" x2="221.8975" y2="187.3761">
		<stop  offset="0" style="stop-color:#F28F3F"/>
		<stop  offset="0.4966" style="stop-color:#ED693C"/>
		<stop  offset="1" style="stop-color:#E83E39"/>
	</linearGradient>
	<path style="fill:url(#SVGID_00000147929142273978246260000000530515950099308189_);" d="M252.08,181.83
		c-4.62,3.7-11.55,5.54-18.48,5.54c-18.02,0-28.34-9.55-28.34-27.72v-39.58h-13.55v-15.4h13.55V85.89h19.25v18.79h22.02v15.4h-22.02
		v39.12c0,8.01,4,12.32,11.4,12.32c4,0,7.85-1.08,10.78-3.39L252.08,181.83z"/>
	
		<linearGradient id="SVGID_00000106862352475039342010000009961731354892462489_" gradientUnits="userSpaceOnUse" x1="300.6758" y1="72.0246" x2="300.6758" y2="186.298">
		<stop  offset="0" style="stop-color:#F28F3F"/>
		<stop  offset="0.4966" style="stop-color:#ED693C"/>
		<stop  offset="1" style="stop-color:#E83E39"/>
	</linearGradient>
	<path style="fill:url(#SVGID_00000106862352475039342010000009961731354892462489_);" d="M341.18,139.17v47.13h-19.25v-44.66
		c0-14.63-7.24-21.71-19.56-21.71c-13.71,0-22.95,8.32-22.95,24.79v41.58h-19.25V72.02h19.25v41.58
		c6.31-6.78,16.02-10.47,27.41-10.47C326.55,103.13,341.18,114.38,341.18,139.17z"/>
	
		<linearGradient id="SVGID_00000178191583860296416290000000951076458259440534_" gradientUnits="userSpaceOnUse" x1="394.5522" y1="72.0246" x2="394.5522" y2="187.3761">
		<stop  offset="0" style="stop-color:#F28F3F"/>
		<stop  offset="0.4966" style="stop-color:#ED693C"/>
		<stop  offset="1" style="stop-color:#E83E39"/>
	</linearGradient>
	<path style="fill:url(#SVGID_00000178191583860296416290000000951076458259440534_);" d="M438.21,145.18
		c0,25.57-17.71,42.2-41.74,42.2c-11.24,0-20.79-3.85-27.26-11.71v10.63h-18.33V72.02h19.25v42.04
		c6.62-7.39,15.86-10.93,26.33-10.93C420.5,103.13,438.21,119.61,438.21,145.18z M418.65,145.18c0-15.71-10.47-25.72-24.33-25.72
		s-24.49,10.01-24.49,25.72c0,15.71,10.63,25.72,24.49,25.72S418.65,160.89,418.65,145.18z"/>
	
		<linearGradient id="SVGID_00000023996110848532461520000006670263604478587831_" gradientUnits="userSpaceOnUse" x1="598.8442" y1="72.0246" x2="598.8442" y2="187.3761">
		<stop  offset="0" style="stop-color:#F28F3F"/>
		<stop  offset="0.4966" style="stop-color:#ED693C"/>
		<stop  offset="1" style="stop-color:#E83E39"/>
	</linearGradient>
	<path style="fill:url(#SVGID_00000023996110848532461520000006670263604478587831_);" d="M642.5,72.02V186.3h-18.48v-10.63
		c-6.47,7.85-16.02,11.71-27.26,11.71c-23.87,0-41.58-16.63-41.58-42.2c0-25.56,17.71-42.04,41.58-42.04
		c10.63,0,20.02,3.54,26.49,11.09v-42.2H642.5z M623.56,145.18c0-15.71-10.63-25.72-24.49-25.72s-24.49,10.01-24.49,25.72
		c0,15.71,10.63,25.72,24.49,25.72S623.56,160.89,623.56,145.18z"/>
	
		<linearGradient id="SVGID_00000036246934580418291600000001477545583874611354_" gradientUnits="userSpaceOnUse" x1="693.4912" y1="72.0246" x2="693.4912" y2="186.298">
		<stop  offset="0" style="stop-color:#F28F3F"/>
		<stop  offset="0.4966" style="stop-color:#ED693C"/>
		<stop  offset="1" style="stop-color:#E83E39"/>
	</linearGradient>
	<path style="fill:url(#SVGID_00000036246934580418291600000001477545583874611354_);" d="M734,139.17v47.13h-19.25v-44.66
		c0-14.63-7.24-21.71-19.56-21.71c-13.71,0-22.95,8.32-22.95,24.79v41.58h-19.25V72.02h19.25v41.58
		c6.31-6.78,16.02-10.47,27.41-10.47C719.36,103.13,734,114.38,734,139.17z"/>
	
		<linearGradient id="Polygon_71_00000074439236744404610070000013967082212871744187_" gradientUnits="userSpaceOnUse" x1="1045.1737" y1="-1570.0128" x2="1045.3718" y2="-1570.8778" gradientTransform="matrix(7.000000e-15 119.1 103.12 -6.000000e-15 162388.0156 -124431.7422)">
		<stop  offset="0" style="stop-color:#FFED30"/>
		<stop  offset="0.8128" style="stop-color:#FFA40D"/>
		<stop  offset="1" style="stop-color:#F29700"/>
	</linearGradient>
	
		<path id="Polygon_71_00000023240929336347769080000013506628672632087988_" style="opacity:0.8;fill:url(#Polygon_71_00000074439236744404610070000013967082212871744187_);enable-background:new    ;" d="
		M490.52,85.41l-44.6,25.76l-44.6-25.75V33.9l44.6-25.75l44.6,25.75V85.41z"/>
	
		<linearGradient id="Polygon_72_00000002353039006645284610000015558136159010985367_" gradientUnits="userSpaceOnUse" x1="1010.2215" y1="-1550.2512" x2="1010.2215" y2="-1551.1826" gradientTransform="matrix(7.000000e-15 -119.1 -103.12 -6.000000e-15 -159410.0781 120464.2109)">
		<stop  offset="0" style="stop-color:#FFED30"/>
		<stop  offset="0.8128" style="stop-color:#FFA40D"/>
		<stop  offset="1" style="stop-color:#F29700"/>
	</linearGradient>
	
		<path id="Polygon_72_00000065051988870916395130000013226924387024260787_" style="opacity:0.8;fill:url(#Polygon_72_00000002353039006645284610000015558136159010985367_);enable-background:new    ;" d="
		M451.83,121.08l44.6-25.76l44.6,25.75v51.51l-44.6,25.75l-44.6-25.75V121.08z"/>
	
		<linearGradient id="Polygon_73_00000070806090292045892960000001853278539038286469_" gradientUnits="userSpaceOnUse" x1="1044.9141" y1="-1570.4347" x2="1045.6476" y2="-1570.6233" gradientTransform="matrix(7.000000e-15 119.1 103.12 -6.000000e-15 162499.8594 -124431.7422)">
		<stop  offset="0" style="stop-color:#FFED30"/>
		<stop  offset="0.8128" style="stop-color:#FFA40D"/>
		<stop  offset="1" style="stop-color:#F29700"/>
	</linearGradient>
	
		<path id="Polygon_73_00000009551825105620345030000001802759380025798048_" style="opacity:0.8;fill:url(#Polygon_73_00000070806090292045892960000001853278539038286469_);enable-background:new    ;" d="
		M591.85,85.41l-44.6,25.76l-44.6-25.75V33.9l44.6-25.75l44.6,25.75V85.41z"/>
	<g>
		<path class="st10" d="M449.29,167.47c0,0,2.05-12.39,1.9-15.35c-0.14-2.96,12.83-28.4,12.83-28.4l32.18-22.21l9.77,0.71l1.83,9.24
			L449.29,167.47z"/>
		<g>
			
				<linearGradient id="SVGID_00000029033930185022654800000010735604769802596780_" gradientUnits="userSpaceOnUse" x1="529.1946" y1="-472.51" x2="414.0879" y2="-308.5571" gradientTransform="matrix(0.8184 -0.5746 0.5746 0.8184 337.646 731.4188)">
				<stop  offset="0" style="stop-color:#63BB46"/>
				<stop  offset="1" style="stop-color:#557334"/>
			</linearGradient>
			<path style="fill-rule:evenodd;clip-rule:evenodd;fill:url(#SVGID_00000029033930185022654800000010735604769802596780_);" d="
				M507.8,109.02c-22.06,3.19-50.87,21.32-56.79,46.2c3.2-75.21,87.29-74.13,101.29-114.6c-12.19,65.87-2.21,79.25-64.03,119.75
				c-8.16,5.63-40.41,26.74-30.45,37.97c-11.84-2.26-15.52-25.44-6.8-43.12C459.15,138.72,478.21,128.31,507.8,109.02z"/>
		</g>
	</g>
	<polygon class="st12" points="490.52,33.9 490.52,85.41 445.92,111.17 451.83,121.08 496.43,95.33 541.03,121.08 547.25,111.17 
		502.65,85.41 502.65,33.9 	"/>
</g>
</svg>
