<svg id="Layer_1" data-name="Layer 1" xmlns="http://www.w3.org/2000/svg" xmlns:xlink="http://www.w3.org/1999/xlink" viewBox="0 0 11000 7000"><defs><style>.cls-1{fill:url(#linear-gradient);}.cls-2{fill:none;stroke:#231f20;stroke-miterlimit:10;stroke-width:100px;}.cls-3{fill:url(#linear-gradient-2);}.cls-4{fill:url(#linear-gradient-3);}.cls-5{fill:url(#linear-gradient-4);}.cls-6{fill:url(#linear-gradient-5);}.cls-7{fill:url(#linear-gradient-6);}.cls-8{fill:url(#linear-gradient-7);}.cls-9{fill:url(#linear-gradient-8);}.cls-10{fill:url(#linear-gradient-9);}.cls-11{fill:#231f20;}.cls-12,.cls-15{fill:#fff;}.cls-13{font-size:451.91px;font-family:FuturaBT-Light, Futura Lt BT;font-weight:300;}.cls-14{fill:url(#linear-gradient-10);}.cls-15{font-size:334.99px;font-family:FuturaBT-Medium, Futura Md BT;font-weight:500;}.cls-16{fill:#000;}.cls-17,.cls-18,.cls-19,.cls-20,.cls-21,.cls-22,.cls-23,.cls-24{fill:#9b9a9a;}.cls-18{opacity:0.2;}.cls-19{opacity:0.3;}.cls-20{opacity:0.4;}.cls-21{opacity:0.5;}.cls-22{opacity:0.6;}.cls-23{opacity:0.7;}.cls-24{opacity:0.9;}</style><linearGradient id="linear-gradient" x1="177.29" y1="1934.91" x2="4307.66" y2="1934.91" gradientUnits="userSpaceOnUse"><stop offset="0" stop-color="#f28f3f"/><stop offset="0.5" stop-color="#ed693c"/><stop offset="1" stop-color="#e83e39"/></linearGradient><linearGradient id="linear-gradient-2" x1="2743.48" y1="2074.72" x2="3312.09" y2="2074.72" xlink:href="#linear-gradient"/><linearGradient id="linear-gradient-3" x1="2627.53" y1="2074.75" x2="3428.08" y2="2074.75" xlink:href="#linear-gradient"/><linearGradient id="linear-gradient-4" x1="1320.62" y1="2397.93" x2="1889.2" y2="2397.93" xlink:href="#linear-gradient"/><linearGradient id="linear-gradient-5" x1="1204.65" y1="2397.96" x2="2005.2" y2="2397.96" xlink:href="#linear-gradient"/><linearGradient id="linear-gradient-6" x1="1436.58" y1="1512.95" x2="2005.16" y2="1512.95" xlink:href="#linear-gradient"/><linearGradient id="linear-gradient-7" x1="1320.62" y1="1512.98" x2="2121.15" y2="1512.98" xlink:href="#linear-gradient"/><linearGradient id="linear-gradient-8" x1="2667.15" y1="971.8" x2="3235.76" y2="971.8" xlink:href="#linear-gradient"/><linearGradient id="linear-gradient-9" x1="2551.2" y1="971.83" x2="3351.75" y2="971.83" xlink:href="#linear-gradient"/><linearGradient id="linear-gradient-10" x1="1412.42" y1="4248.72" x2="3072.53" y2="4277.69" xlink:href="#linear-gradient"/></defs><path class="cls-1" d="M4279.77,1841.61l-67.39-119.21L3341.61,214.1c-31.1-57-93.29-93.29-160.67-93.29H1299.44c-67.38,0-129.57,36.28-160.67,93.29L200.62,1841.62c-31.1,57-31.1,129.57,0,186.59l938.15,1627.52c31.1,57,93.29,93.29,160.67,93.29h1881.5c67.38,0,129.57-36.28,160.67-93.29l943.33-1627.52h0C4316,1971.19,4316,1903.81,4279.77,1841.61Zm-181.13,199.07-834,1450.48c-36.26,66.48-108.79,108.78-187.35,108.78H1403.16c-30.22,0-54.39-6-78.57-18.13-42.3-18.13-78.56-48.35-102.74-90.65l-18.13-30.22-417-725.24-404.93-695c-36.26-66.48-36.26-145,0-211.53l834-1450.48c36.26-66.48,108.78-108.79,187.35-108.79h1674.1c78.56,0,151.09,42.31,187.35,108.79l42.3,72.53,791.73,1378C4140.94,1895.63,4140.94,1974.2,4098.64,2040.68Z"/><path class="cls-2" d="M2169.38,3197.57s-48.23-972.52,458.2-972.52"/><path class="cls-2" d="M2297.73,2475.05s238.18-498-217.7-734.79"/><path class="cls-2" d="M2307.27,1956.82s-74.27-340.57,320.31-690.06"/><path class="cls-3" d="M3027.79,1790.44c-157,0-284.31,127.3-284.31,284.31S2870.83,2359,3027.79,2359s284.3-127.24,284.3-284.26S3184.85,1790.44,3027.79,1790.44Z"/><path class="cls-4" d="M3027.79,1674.46c-221,0-400.26,179.23-400.26,400.29s179.22,400.3,400.26,400.3,400.29-179.22,400.29-400.3S3248.85,1674.46,3027.79,1674.46Zm0,714.47c-173.54,0-314.22-140.67-314.22-314.18s140.68-314.23,314.22-314.23,314.31,140.7,314.31,314.23S3201.36,2388.93,3027.79,2388.93Z"/><path class="cls-5" d="M1604.9,2113.65c-157,0-284.28,127.3-284.28,284.33s127.31,284.23,284.28,284.23S1889.2,2555,1889.2,2398,1762,2113.65,1604.9,2113.65Z"/><path class="cls-6" d="M1604.9,1997.67c-221.06,0-400.25,179.22-400.25,400.31s179.19,400.27,400.25,400.27S2005.2,2619,2005.2,2398,1826,1997.67,1604.9,1997.67Zm0,714.49c-173.54,0-314.22-140.7-314.22-314.18s140.68-314.24,314.22-314.24,314.32,140.69,314.32,314.24S1778.48,2712.16,1604.9,2712.16Z"/><path class="cls-7" d="M1720.87,1228.66c-157,0-284.29,127.31-284.29,284.34s127.32,284.23,284.29,284.23S2005.16,1670,2005.16,1513,1877.92,1228.66,1720.87,1228.66Z"/><path class="cls-8" d="M1720.87,1112.68c-221.07,0-400.25,179.24-400.25,400.32s179.18,400.28,400.25,400.28,400.28-179.21,400.28-400.28S1941.94,1112.68,1720.87,1112.68Zm0,714.48c-173.55,0-314.25-140.68-314.25-314.16s140.7-314.24,314.25-314.24,314.32,140.71,314.32,314.24S1894.45,1827.16,1720.87,1827.16Z"/><path class="cls-9" d="M2951.44,687.51c-157,0-284.29,127.31-284.29,284.34s127.32,284.24,284.29,284.24,284.32-127.22,284.32-284.24S3108.52,687.51,2951.44,687.51Z"/><path class="cls-10" d="M2951.44,571.53c-221.05,0-400.24,179.24-400.24,400.32s179.19,400.28,400.24,400.28,400.31-179.21,400.31-400.28S3172.53,571.53,2951.44,571.53Zm0,714.49c-173.53,0-314.22-140.69-314.22-314.17s140.69-314.23,314.22-314.23,314.33,140.7,314.33,314.23S3125,1286,2951.44,1286Z"/><path class="cls-11" d="M3128.74,3539.46c-202.5-136.34-533-225.25-906.55-225.25s-704,88.91-906.53,225.25Z"/><path id="Rupee" class="cls-12" d="M1858.91,1317.9H1605v42.33h126a233.77,233.77,0,0,1,16.52,34.2c1.06,2.77,2.11,5.69,3.11,8.75H1605v42.32h153a76,76,0,0,1-5.2,28.34c-5.72,14.09-16.51,26.09-32.08,35.67-19.86,12.22-47.56,20.71-82.32,25.24l-33.44,4.69v36.92L1758.13,1708h63l-155.61-135.83c69.67-8.9,106.94-42.93,122.84-82.12a119,119,0,0,0,8.38-44.54h62.17v-42.32h-67.84a223,223,0,0,0-7.77-24.18c-2.58-6.73-5.33-13-8.06-18.77h83.67Z"/><path id="Rupee-2" data-name="Rupee" class="cls-12" d="M3078.47,776.78h-254v42.33h126a234.41,234.41,0,0,1,16.51,34.2c1.06,2.77,2.11,5.7,3.11,8.75H2824.51v42.33h153a75.88,75.88,0,0,1-5.2,28.34c-5.71,14.08-16.51,26.08-32.08,35.66-19.86,12.22-47.56,20.71-82.32,25.24l-33.44,4.69v36.92l153.18,131.64h63L2885.08,1031c69.68-8.9,107-42.93,122.84-82.12a118.71,118.71,0,0,0,8.38-44.53h62.17V862.06h-67.83a224.46,224.46,0,0,0-7.78-24.17c-2.58-6.74-5.33-13-8.05-18.78h83.66Z"/><path id="Rupee-3" data-name="Rupee" class="cls-12" d="M3154.82,1912.61h-254v42.32h126a233.89,233.89,0,0,1,16.51,34.2c1.06,2.77,2.11,5.7,3.12,8.76h-145.6v42.32H3053.9a76.05,76.05,0,0,1-5.21,28.34c-5.71,14.09-16.5,26.09-32.07,35.67-19.87,12.21-47.56,20.71-82.33,25.24l-33.44,4.69v36.92L3054,2302.7h63l-155.62-135.83c69.68-8.9,106.95-42.94,122.84-82.13a118.51,118.51,0,0,0,8.38-44.53h62.18v-42.32H3087a226.76,226.76,0,0,0-7.77-24.18c-2.59-6.74-5.34-13-8.06-18.78h83.67Z"/><path id="Rupee-4" data-name="Rupee" class="cls-12" d="M1731.93,2225.05H1478v42.33h126a234.8,234.8,0,0,1,16.52,34.2c1.06,2.77,2.11,5.7,3.11,8.75H1478v42.33h153a76.08,76.08,0,0,1-5.2,28.34c-5.72,14.09-16.51,26.08-32.08,35.66-19.86,12.22-47.56,20.72-82.32,25.25L1478,2446.6v36.91l153.18,131.64h63l-155.61-135.84c69.67-8.89,106.94-42.93,122.84-82.12a118.91,118.91,0,0,0,8.38-44.53h62.17v-42.33h-67.84a222.15,222.15,0,0,0-7.77-24.17c-2.58-6.74-5.33-13-8.06-18.78h83.67Z"/><text class="cls-13" transform="translate(741.9 5145.75)">Understand the <tspan x="35.97" y="542.29">risk profile and </tspan><tspan x="16.33" y="1084.58">analyze current </tspan><tspan x="-100.29" y="1626.87">financial position</tspan></text><rect class="cls-14" x="1415.61" y="4062.24" width="1653.73" height="401.93" rx="3.55"/><text class="cls-15" transform="translate(1684.84 4399.62)">STEP 1<tspan class="cls-16" x="1014.29" y="0"> </tspan></text><polygon class="cls-17" points="9978.22 1444.36 9978.22 2276.7 10602.47 1860.53 9978.22 1444.36"/><circle class="cls-18" cx="4779.02" cy="1860.53" r="201.94"/><circle class="cls-19" cx="5552.7" cy="1860.53" r="201.94"/><circle class="cls-20" cx="6326.37" cy="1860.53" r="201.94"/><circle class="cls-21" cx="7100.05" cy="1860.53" r="201.94"/><circle class="cls-22" cx="7873.72" cy="1860.53" r="201.94"/><circle class="cls-23" cx="8647.39" cy="1860.53" r="201.94"/><circle class="cls-24" cx="9421.07" cy="1860.53" r="201.94"/></svg>