<svg id="Layer_1" data-name="Layer 1" xmlns="http://www.w3.org/2000/svg" xmlns:xlink="http://www.w3.org/1999/xlink" viewBox="0 0 11000 7000"><defs><style>.cls-1{fill:url(#linear-gradient);}.cls-2{fill:none;}.cls-3{fill:url(#linear-gradient-2);}.cls-11,.cls-4{fill:#fff;}.cls-5{fill:url(#linear-gradient-3);}.cls-6{fill:#231f20;}.cls-7{fill:#5a6e7f;}.cls-8{fill:url(#linear-gradient-4);}.cls-9{fill:url(#linear-gradient-5);}.cls-10{fill:url(#linear-gradient-6);}.cls-11{font-size:334.34px;font-family:FuturaBT-Medium, Futura Md BT;font-weight:500;}.cls-12{fill:#000;}.cls-13{font-size:451.03px;font-family:FuturaBT-Light, Futura Lt BT;font-weight:300;}.cls-14,.cls-15,.cls-16,.cls-17,.cls-18,.cls-19,.cls-20,.cls-21{fill:#9b9a9a;}.cls-15{opacity:0.2;}.cls-16{opacity:0.3;}.cls-17{opacity:0.4;}.cls-18{opacity:0.5;}.cls-19{opacity:0.6;}.cls-20{opacity:0.7;}.cls-21{opacity:0.9;}</style><linearGradient id="linear-gradient" x1="155.12" y1="1931.4" x2="4277.47" y2="1931.4" gradientUnits="userSpaceOnUse"><stop offset="0" stop-color="#f28f3f"/><stop offset="0.5" stop-color="#ed693c"/><stop offset="1" stop-color="#e83e39"/></linearGradient><linearGradient id="linear-gradient-2" x1="1107.91" y1="1515.12" x2="3034.84" y2="1515.12" xlink:href="#linear-gradient"/><linearGradient id="linear-gradient-3" x1="1500.63" y1="1292.82" x2="2133.08" y2="1292.82" xlink:href="#linear-gradient"/><linearGradient id="linear-gradient-4" x1="1627.97" y1="2889.05" x2="3324.68" y2="2889.05" xlink:href="#linear-gradient"/><linearGradient id="linear-gradient-5" x1="2345.76" y1="2917.84" x2="2606.78" y2="2917.84" xlink:href="#linear-gradient"/><linearGradient id="linear-gradient-6" x1="1387.85" y1="4240.71" x2="3044.74" y2="4269.63" xlink:href="#linear-gradient"/></defs><path class="cls-1" d="M4249.63,1838.28l-67.25-119L3313.29,213.92c-31-56.9-93.1-93.11-160.35-93.11H1275.09c-67.25,0-129.32,36.21-160.36,93.11L178.39,1838.28c-31,56.91-31,129.32,0,186.23l936.34,1624.36c31,56.91,93.11,93.11,160.36,93.11H3152.94c67.25,0,129.32-36.2,160.35-93.11L4254.8,2024.51h0C4285.84,1967.6,4285.84,1900.35,4249.63,1838.28ZM4068.85,2037l-832.4,1447.67c-36.19,66.35-108.58,108.58-187,108.58H1378.61c-30.16,0-54.29-6-78.42-18.1-42.22-18.1-78.41-48.26-102.54-90.48l-18.1-30.16-416.2-723.83L359.21,2037c-36.19-66.35-36.19-144.76,0-211.11L1191.62,378.17c36.19-66.35,108.57-108.57,187-108.57H3049.46c78.41,0,150.8,42.22,187,108.57l42.22,72.38,790.18,1375.29C4111.07,1892.19,4111.07,1970.6,4068.85,2037Z"/><path class="cls-2" d="M1816.87,660.38c223.56,0,419.58,116.26,532,291.37l31.84-18.5c-119-186.13-327.07-310-563.87-310-369.2,0-669.57,300.36-669.57,669.55s300.37,669.58,669.57,669.58c35.81,0,70.75-3.59,105.09-9.06-1.44-12.2-2.14-24.62-2.77-37-33.41,5.49-67.36,9-102.32,9-349.23,0-632.47-283.12-632.47-632.46S1467.64,660.38,1816.87,660.38Z"/><path class="cls-2" d="M2476.26,1329.27c2.79,0,5.5.44,8.26.44.67-12.26,1.92-24.4,1.92-36.91,0-109.83-27.09-213.3-74.2-305l-32,18.64c43.82,86.09,69.08,183.15,69.08,286.32,0,12.87-1.18,25.37-1.92,37.94C2457,1330.3,2466.47,1329.27,2476.26,1329.27Z"/><path class="cls-3" d="M1147.3,1292.8c0-369.19,300.37-669.55,669.57-669.55,236.8,0,444.84,123.87,563.87,310l34-19.8c-125.91-197.75-346.58-329.59-597.88-329.59-390.89,0-709,318.06-709,708.94s318.07,709,709,709c37.86,0,74.74-3.88,111-9.58,48.92,258.55,275.6,454.19,548.4,454.19,308.5,0,558.58-250,558.58-558.47,0-292.4-224.87-532-511-556.22.72-13,2-25.74,2-38.9a702.75,702.75,0,0,0-79.57-324.75l-34,19.79c47.11,91.66,74.2,195.13,74.2,305,0,12.51-1.25,24.65-1.92,36.91-2.76,0-5.47-.44-8.26-.44-9.79,0-19.27,1-28.84,1.47.74-12.57,1.92-25.07,1.92-37.94,0-103.17-25.26-200.23-69.08-286.32l-136.91,79.74c30.37,62.55,47.9,132.41,47.9,206.58,0,24.13-2.41,47.59-5.86,70.69-172.45,62.84-305,208-350.21,388.2-37.82,9.72-77.37,15.49-118.31,15.49-262,0-474.38-212.38-474.38-474.38s212.37-474.28,474.38-474.28c165.26,0,310.6,84.55,395.5,212.74l136.53-79.51c-112.45-175.11-308.47-291.37-532-291.37-349.23,0-632.47,283.19-632.47,632.42s283.24,632.46,632.47,632.46c35,0,68.91-3.5,102.32-9,.63,12.43,1.33,24.85,2.77,37-34.34,5.47-69.28,9.06-105.09,9.06C1447.67,1962.38,1147.3,1662,1147.3,1292.8Z"/><path class="cls-4" d="M1816.87,976.59c106.88,0,201.27,53.21,258.49,134.48l137-79.81c-84.9-128.19-230.24-212.74-395.5-212.74-262,0-474.38,212.38-474.38,474.28s212.37,474.38,474.38,474.38c40.94,0,80.49-5.77,118.31-15.49,45.25-180.22,177.76-325.36,350.21-388.2,3.45-23.1,5.86-46.56,5.86-70.69,0-74.17-17.53-144-47.9-206.58l-136.94,79.72a315.13,315.13,0,0,1,26.67,126.86c0,174.67-141.55,316.24-316.21,316.24s-316.24-141.57-316.24-316.24S1642.21,976.59,1816.87,976.59Z"/><path class="cls-5" d="M1816.87,1134.74c48.55,0,91.44,22.3,120.36,56.71l138.13-80.38c-57.22-81.27-151.61-134.48-258.49-134.48-174.66,0-316.24,141.56-316.24,316.21S1642.21,1609,1816.87,1609s316.21-141.57,316.21-316.24a315.13,315.13,0,0,0-26.67-126.86l-139.07,81c4.48,14.62,7.58,29.81,7.58,45.88a158.11,158.11,0,1,1-316.21,0C1658.71,1205.48,1729.54,1134.74,1816.87,1134.74Z"/><path class="cls-4" d="M1838.5,1249l98.73-57.51c-28.92-34.41-71.81-56.71-120.36-56.71-87.33,0-158.16,70.74-158.16,158.06a158.11,158.11,0,1,0,316.21,0c0-16.07-3.1-31.26-7.58-45.88l-101,58.83a27.77,27.77,0,0,1-37.45-9.13l-1.49-2.35A32.42,32.42,0,0,1,1838.5,1249Z"/><path class="cls-6" d="M2730.79,908.26a20.28,20.28,0,0,0,20-.36l21.07-12.2a10.32,10.32,0,0,0,5-8.93,10.08,10.08,0,0,0-5.33-8.83L2676,825.68l10.9-6.44,4.74-6.27-1.09-7.76-13.2-22a10.41,10.41,0,0,0-14-3.58l-11.25,6.59-.57-107.8a10.2,10.2,0,0,0-5.2-8.78h-10.14l-20.91,12.21a20.31,20.31,0,0,0-10.09,17.62l.65,113.71-5.53,3.29-.65-107.87a10.13,10.13,0,0,0-5.11-8.77l-10.23.07L2563.39,712a20.33,20.33,0,0,0-10.09,17.61l.74,113.71-5.64,3.29-.63-107.86a10.22,10.22,0,0,0-5.14-8.78l-10.16.08-20.9,12.13a20.19,20.19,0,0,0-10.06,17.61l.55,96.91a10.14,10.14,0,0,1-5,8.77l-82.35,47.94-34,19.8-31.84,18.5-136.53,79.51-137,79.81-138.13,80.38L1838.5,1249a32.42,32.42,0,0,0-11.1,45.31l1.49,2.35a27.77,27.77,0,0,0,37.45,9.13l101-58.83,139.07-81,136.94-79.72,136.91-79.74,32-18.64,34-19.79,82.26-47.87,9.83-.15,88.73,48.59a20.49,20.49,0,0,0,19.88-.2l21.07-12.29a10.26,10.26,0,0,0-.2-17.76L2572.31,886l5.33-3.06L2679,938.37a19.87,19.87,0,0,0,19.86-.21l21-12.21a10.22,10.22,0,0,0-.17-17.83l-95.55-52.25,5.36-3.15Z"/><polygon class="cls-7" points="2412.79 2763.65 2349.27 2646.86 2349.21 2646.86 2412.79 2763.65"/><path class="cls-8" d="M2153,2499.16c-290,0-525,235-525,525v254.76H3324.68V3024.18c0-290-235.09-525-525.11-525Zm531.37,689.66H2268.22l-120.43-632.45c11.84-.87,23.68-1.74,35.65-1.74h585.68c12.06,0,23.9.87,35.65,1.74Z"/><path class="cls-4" d="M2542.15,2763.65l64.63,425.17h77.56l120.43-632.45c-11.75-.87-23.59-1.74-35.65-1.74H2183.44c-12,0-23.81.87-35.65,1.74l120.43,632.45h77.54l64.74-425.17h2.29l-63.58-116.79h254.16l-63.53,116.79Z"/><polygon class="cls-9" points="2345.76 3188.82 2606.78 3188.82 2542.15 2763.65 2539.84 2763.65 2603.37 2646.86 2349.27 2646.86 2412.79 2763.65 2410.49 2763.65 2345.76 3188.82"/><rect class="cls-10" x="1391.03" y="4054.59" width="1650.52" height="401.15" rx="3.55"/><text class="cls-11" transform="translate(1659.72 4391.33)">STEP 2<tspan class="cls-12" x="1012.32" y="0"> </tspan></text><text class="cls-13" transform="translate(966.49 5136.04)">Identify short <tspan x="-140.84" y="541.24">term and long </tspan><tspan x="259.98" y="1082.47">term goals</tspan></text><polygon class="cls-14" points="9978.22 1444.36 9978.22 2276.7 10602.47 1860.53 9978.22 1444.36"/><circle class="cls-15" cx="4779.02" cy="1860.53" r="201.94"/><circle class="cls-16" cx="5552.7" cy="1860.53" r="201.94"/><circle class="cls-17" cx="6326.37" cy="1860.53" r="201.94"/><circle class="cls-18" cx="7100.05" cy="1860.53" r="201.94"/><circle class="cls-19" cx="7873.72" cy="1860.53" r="201.94"/><circle class="cls-20" cx="8647.39" cy="1860.53" r="201.94"/><circle class="cls-21" cx="9421.07" cy="1860.53" r="201.94"/></svg>