<svg id="Layer_1" data-name="Layer 1" xmlns="http://www.w3.org/2000/svg" xmlns:xlink="http://www.w3.org/1999/xlink" viewBox="0 0 11000 7000"><defs><style>.cls-1{fill:url(#linear-gradient);}.cls-2{fill:url(#linear-gradient-2);}.cls-3{fill:url(#linear-gradient-3);}.cls-4{font-size:334.53px;fill:#fff;font-family:FuturaBT-Medium, Futura Md BT;font-weight:500;}.cls-5{fill:#000;}.cls-6{font-size:451.28px;font-family:FuturaBT-Light, Futura Lt BT;font-weight:300;}.cls-10,.cls-11,.cls-12,.cls-13,.cls-14,.cls-7,.cls-8,.cls-9{fill:#9b9a9a;}.cls-8{opacity:0.2;}.cls-9{opacity:0.3;}.cls-10{opacity:0.4;}.cls-11{opacity:0.5;}.cls-12{opacity:0.6;}.cls-13{opacity:0.7;}.cls-14{opacity:0.9;}</style><linearGradient id="linear-gradient" x1="155.12" y1="1932.4" x2="4279.77" y2="1932.4" gradientUnits="userSpaceOnUse"><stop offset="0" stop-color="#f28f3f"/><stop offset="0.5" stop-color="#ed693c"/><stop offset="1" stop-color="#e83e39"/></linearGradient><linearGradient id="linear-gradient-2" x1="1332.87" y1="1932.4" x2="3102.02" y2="1932.4" xlink:href="#linear-gradient"/><linearGradient id="linear-gradient-3" x1="1388.53" y1="4243.01" x2="3046.35" y2="4271.94" xlink:href="#linear-gradient"/></defs><path class="cls-1" d="M4251.91,1839.23l-67.29-119L3315.05,214c-31.05-56.93-93.16-93.16-160.44-93.16H1275.71c-67.28,0-129.39,36.23-160.45,93.16L178.41,1839.24c-31.06,56.94-31.06,129.39,0,186.33l936.85,1625.26c31.06,56.94,93.17,93.17,160.45,93.17h1878.9c67.28,0,129.39-36.23,160.44-93.17l942-1625.26h0C4288.14,1968.63,4288.14,1901.34,4251.91,1839.23ZM4071,2038,3238.16,3486.49c-36.21,66.39-108.63,108.64-187.09,108.64H1379.29c-30.17,0-54.31-6-78.46-18.11-42.24-18.1-78.46-48.28-102.6-90.53l-18.11-30.17L763.69,2732.08,359.33,2038c-36.22-66.39-36.22-144.85,0-211.23L1192.2,378.31c36.21-66.38,108.63-108.63,187.09-108.63H3051.07c78.46,0,150.88,42.25,187.09,108.63l42.25,72.43L4071,1826.79C4113.28,1893.17,4113.28,1971.63,4071,2038Z"/><path class="cls-2" d="M1942.36,3117.65a86.78,86.78,0,0,1-79.09-93.89c4.11-47.78,46.11-83.21,93.9-79.9,86.49,7.41,174.63,11.53,261.92,11.53,88.14,0,175.45-4.12,261.95-11.53,48.61-3.31,90.61,32.12,93.9,79.9a86.78,86.78,0,0,1-79.06,93.89c-47,4.12-93.93,7.41-140.87,9.07A147.45,147.45,0,0,1,2236.4,3186c-47.78,0-89.79-23.06-117-57.65-59.31-2.49-117.77-5.78-177.07-10.72Zm116.93-1279.19-551,315.48,25.54-20.6c-50.23-72.48-98.84-149.1-138.36-246.29-52.73-132.61-71.68-273.47-58.52-412.67,14-137.56,59.31-272.64,137.58-392.9,75-115.32,173-209.22,286.65-276.76,160.62-96.37,347.58-138.38,533.75-122.73,137.55,14,259.45,51.06,378.89,122.73a882.93,882.93,0,0,1,286.64,276.76A892.9,892.9,0,0,1,3098,1474.38c13.17,139.2-5.78,280.06-58.48,412.67C2995,1996.6,2938.16,2079,2882.17,2159.7c-85.67,124.38-168.86,245.46-176.27,458,.82,32.94-3.29,70.83-4.94,104.6-.82,32.12-2.46,62.6-3.3,91.43,2.48,45.3-30.47,85.67-75.79,91.43a3304.65,3304.65,0,0,1-402.78,24.72c-33.77,0-386.3-21.43-401.94-24.72-42-4.94-75-39.53-76.61-82.36-1.65-30.48-3.3-63.43-5.8-100.5-14.8-256.17-28-335.25-173-548.58l150.74-86.49C1807.25,2224,1893.71,2364,1902,2612.73c.82,0,6.59,92.25,6.59,99.67l1.67,28q154.44,14.82,308.86,14.81c102.95,0,205.11-4.93,307.26-14.81l.8-24.72h0c-67.54,4.94-147.45,8.23-224,9.06-99.66.82-195.2-4.12-260.3-16.46-46.94-9.89-78.24-55.2-69.19-102.15,9.88-47.77,55.2-78.25,102.16-69.2,55.17,10.72,138.37,14.83,226.51,14,82.35-.82,166.4-4.94,234.73-10.71,23.1-218.28,111.24-346.77,202.64-478.56,50.26-73.31,102.14-148.27,138.4-238.87a716.47,716.47,0,0,0,46.93-332c-11.52-110.37-47.78-218.28-110.38-314.65-60.11-92.25-139.19-168-230.62-222.39-90.61-54.37-198.5-90.6-304.74-98-149.09-13.18-299.84,20.59-429.18,98-90.58,54.36-169.67,130.14-229.8,222.39a701.6,701.6,0,0,0-110.38,314.65,716.75,716.75,0,0,0,47,332c29.65,75,70,138.38,112,199.33l449.75-369.84,126,109.55,371.49-308.06-47-47,266.06-45.3-94.73,248.75-51.86-61-495.07,430.79Zm-384.64-341H1916V1761l-241.31,197.69Zm294.86-153.21h241.36v328.65l-91.44-79.07-149.92,123.55Zm318-205.1H2528v329.48L2287.48,1668Z"/><path d="M1674.65,1497.45H1916V1761l-241.31,197.69Zm294.86-153.21h241.36v328.65l-91.44-79.07-149.92,123.55Zm318-205.1H2528v329.48L2287.48,1668Z"/><rect class="cls-3" x="1391.72" y="4056.79" width="1651.44" height="401.38" rx="3.55"/><text class="cls-4" transform="translate(1660.56 4393.71)">STEP 3<tspan class="cls-5" x="1012.89" y="0"> </tspan></text><text class="cls-6" transform="translate(816.01 5138.8)">Design proper <tspan x="768.26" y="541.54">mix of </tspan><tspan x="349.7" y="1083.08">Investment </tspan><tspan x="839.1" y="1624.62">Ideas </tspan></text><polygon class="cls-7" points="9978.22 1444.36 9978.22 2276.7 10602.47 1860.53 9978.22 1444.36"/><circle class="cls-8" cx="4779.02" cy="1860.53" r="201.94"/><circle class="cls-9" cx="5552.7" cy="1860.53" r="201.94"/><circle class="cls-10" cx="6326.37" cy="1860.53" r="201.94"/><circle class="cls-11" cx="7100.05" cy="1860.53" r="201.94"/><circle class="cls-12" cx="7873.72" cy="1860.53" r="201.94"/><circle class="cls-13" cx="8647.39" cy="1860.53" r="201.94"/><circle class="cls-14" cx="9421.07" cy="1860.53" r="201.94"/></svg>