<svg id="Layer_1" data-name="Layer 1" xmlns="http://www.w3.org/2000/svg" xmlns:xlink="http://www.w3.org/1999/xlink" viewBox="0 0 11000 7000"><defs><style>.cls-1{fill:url(#linear-gradient);}.cls-2{fill:url(#linear-gradient-2);}.cls-3{fill:url(#linear-gradient-3);}.cls-4{font-size:331.66px;fill:#fff;font-family:FuturaBT-Medium, Futura Md BT;font-weight:500;}.cls-5{letter-spacing:0em;fill:#000;}.cls-6{font-size:447.42px;font-family:FuturaBT-Light, Futura Lt BT;font-weight:300;}.cls-10,.cls-11,.cls-12,.cls-13,.cls-14,.cls-7,.cls-8,.cls-9{fill:#9b9a9a;}.cls-8{opacity:0.2;}.cls-9{opacity:0.3;}.cls-10{opacity:0.4;}.cls-11{opacity:0.5;}.cls-12{opacity:0.6;}.cls-13{opacity:0.7;}.cls-14{opacity:0.9;}</style><linearGradient id="linear-gradient" x1="188.15" y1="1916.89" x2="4277.47" y2="1916.89" gradientUnits="userSpaceOnUse"><stop offset="0" stop-color="#f28f3f"/><stop offset="0.5" stop-color="#ed693c"/><stop offset="1" stop-color="#e83e39"/></linearGradient><linearGradient id="linear-gradient-2" x1="1063.72" y1="2056.61" x2="3401.89" y2="2056.61" xlink:href="#linear-gradient"/><linearGradient id="linear-gradient-3" x1="1411" y1="4207.7" x2="3054.62" y2="4236.39" xlink:href="#linear-gradient"/></defs><path class="cls-1" d="M4249.86,1824.52l-66.72-118L3321,213.18c-30.79-56.45-92.36-92.37-159.07-92.37H1299.15c-66.71,0-128.29,35.92-159.08,92.37L211.24,1824.52c-30.79,56.45-30.79,128.29,0,184.74L1140.07,3620.6c30.79,56.45,92.37,92.37,159.08,92.37H3162c66.71,0,128.28-35.92,159.07-92.37l934-1611.34h0C4285.77,1952.8,4285.77,1886.09,4249.86,1824.52ZM4070.53,2021.6,3244.79,3457.67c-35.9,65.82-107.71,107.71-185.5,107.71H1401.84c-29.92,0-53.86-6-77.8-18-41.88-18-77.78-47.86-101.71-89.75l-18-29.92-412.87-718L390.6,2021.6c-35.9-65.82-35.9-143.6,0-209.42L1216.34,376.11c35.9-65.82,107.7-107.71,185.5-107.71H3059.29c77.79,0,149.6,41.89,185.5,107.71l41.88,71.8,783.86,1364.27C4112.41,1878,4112.41,1955.78,4070.53,2021.6Z"/><polygon points="3375.48 2084.66 3240.28 1911.96 3202.17 1994.34 2503.2 1658.78 2445.4 1189.36 1529.25 846.41 1508.72 907.33 2399.16 1228.75 2446.82 1698.45 3187.92 2025.15 3154.47 2097.47 3375.48 2084.66"/><path class="cls-2" d="M3242.41,2833.63V2642.32a40,40,0,0,0-39.89-39.89H2813.74a40,40,0,0,0-39.89,39.89v191.31h-50.37V2173.86a40,40,0,0,0-39.9-39.89H2294.81a40,40,0,0,0-39.89,39.89v659.77h-50.38V1624.2a40,40,0,0,0-39.89-39.9H1775.88a40,40,0,0,0-39.9,39.9V2833.63h-50.37V1165.73a40,40,0,0,0-39.89-39.89H1257a40,40,0,0,0-39.9,39.89v1667.9H1063.72v153.74H3401.89V2833.63Z"/><rect class="cls-3" x="1414.16" y="4023.08" width="1637.3" height="397.94" rx="3.55"/><text class="cls-4" transform="translate(1695.68 4355.62)">STEP 4<tspan class="cls-5" x="1004.21" y="0"> </tspan></text><text class="cls-6" transform="translate(1761.7 5095.83)">Asset<tspan x="-461.62" y="536.9">Allocation</tspan></text><polygon class="cls-7" points="9978.22 1444.36 9978.22 2276.7 10602.47 1860.53 9978.22 1444.36"/><circle class="cls-8" cx="4779.02" cy="1860.53" r="201.94"/><circle class="cls-9" cx="5552.7" cy="1860.53" r="201.94"/><circle class="cls-10" cx="6326.37" cy="1860.53" r="201.94"/><circle class="cls-11" cx="7100.05" cy="1860.53" r="201.94"/><circle class="cls-12" cx="7873.72" cy="1860.53" r="201.94"/><circle class="cls-13" cx="8647.39" cy="1860.53" r="201.94"/><circle class="cls-14" cx="9421.07" cy="1860.53" r="201.94"/></svg>