<svg id="Layer_1" data-name="Layer 1" xmlns="http://www.w3.org/2000/svg" xmlns:xlink="http://www.w3.org/1999/xlink" viewBox="0 0 11000 7000"><defs><style>.cls-1{font-size:449.64px;font-family:FuturaBT-Light, Futura Lt BT;font-weight:300;}.cls-2{letter-spacing:-0.05em;}.cls-3{letter-spacing:0em;}.cls-4{fill:url(#linear-gradient);}.cls-5{fill:url(#linear-gradient-2);}.cls-6{fill:url(#linear-gradient-3);}.cls-7{fill:url(#linear-gradient-4);}.cls-8{fill:url(#linear-gradient-5);}.cls-9{fill:url(#linear-gradient-6);}.cls-10{fill:url(#linear-gradient-7);}.cls-11{fill:url(#linear-gradient-8);}.cls-12{fill:url(#linear-gradient-9);}.cls-13{fill:url(#linear-gradient-10);}.cls-14{fill:url(#linear-gradient-11);}.cls-15{font-size:333.31px;fill:#fff;font-family:FuturaBT-Medium, Futura Md BT;font-weight:500;}.cls-16{fill:#000;}</style><linearGradient id="linear-gradient" x1="175.03" y1="1925.81" x2="4284.68" y2="1925.81" gradientUnits="userSpaceOnUse"><stop offset="0" stop-color="#f28f3f"/><stop offset="0.5" stop-color="#ed693c"/><stop offset="1" stop-color="#e83e39"/></linearGradient><linearGradient id="linear-gradient-2" x1="1305.68" y1="1316.34" x2="2239.62" y2="1316.34" xlink:href="#linear-gradient"/><linearGradient id="linear-gradient-3" x1="1415.36" y1="1123.79" x2="1987.56" y2="1123.79" xlink:href="#linear-gradient"/><linearGradient id="linear-gradient-4" x1="1545.72" y1="1165.29" x2="2081.16" y2="1165.29" xlink:href="#linear-gradient"/><linearGradient id="linear-gradient-5" x1="1368.45" y1="1688.71" x2="1738.2" y2="1688.71" xlink:href="#linear-gradient"/><linearGradient id="linear-gradient-6" x1="994.68" y1="2268.59" x2="1332.59" y2="2268.59" xlink:href="#linear-gradient"/><linearGradient id="linear-gradient-7" x1="1140.9" y1="2303.81" x2="2003.51" y2="2303.81" xlink:href="#linear-gradient"/><linearGradient id="linear-gradient-8" x1="1730.5" y1="2355.25" x2="2364.97" y2="2355.25" xlink:href="#linear-gradient"/><linearGradient id="linear-gradient-9" x1="2237.25" y1="2335.52" x2="2609.51" y2="2335.52" xlink:href="#linear-gradient"/><linearGradient id="linear-gradient-10" x1="2347.78" y1="2417.08" x2="2813.17" y2="2417.08" xlink:href="#linear-gradient"/><linearGradient id="linear-gradient-11" x1="1403.96" y1="4228.01" x2="3055.75" y2="4256.84" xlink:href="#linear-gradient"/></defs><text class="cls-1" transform="translate(1400.44 5120.55)"><tspan class="cls-2">P<tspan class="cls-3" x="200.23" y="0">ortfolio </tspan></tspan><tspan x="-422.09" y="539.57">Construction </tspan><tspan x="404.3" y="1079.14">and </tspan><tspan x="-260.06" y="1618.7">Monitoring </tspan></text><path class="cls-4" d="M4256.92,1833l-67-118.61L3323.47,213.64c-30.94-56.74-92.82-92.83-159.86-92.83H1291.55c-67,0-128.92,36.09-159.87,92.83L198.24,1833c-30.94,56.74-30.94,128.93,0,185.66L1131.68,3638c31,56.73,92.83,92.83,159.87,92.83H3163.61c67,0,128.92-36.1,159.86-92.83l938.61-1619.35h0C4293,1961.91,4293,1894.86,4256.92,1833ZM4076.7,2031.05l-829.84,1443.2c-36.08,66.14-108.24,108.24-186.41,108.24H1394.75c-30.06,0-54.11-6-78.17-18-42.09-18-78.17-48.11-102.23-90.2l-18-30.07-414.92-721.6L378.5,2031.05c-36.08-66.15-36.08-144.32,0-210.47l829.84-1443.2c36.08-66.15,108.24-108.24,186.41-108.24h1665.7c78.17,0,150.33,42.09,186.41,108.24L3289,449.54l787.75,1371C4118.79,1886.73,4118.79,1964.9,4076.7,2031.05Z"/><path class="cls-5" d="M1345.4,1414.1c21.36,12.84,47.33,8.56,71,8.33,6.57,58.59,16.07,116.84,21.88,175.53,69.36.75,141.68-2.74,206.54,26.28,63.35,25.63,113.68,74.76,152.9,129.59,5.93,9.87,17.26,13.36,27.36,17.26,20.38,7.85,39.86,17.83,59.71,27s43,10.06,64,4.69c13-3.15,21.39-15.57,24.17-28,2.85-16.77-9.42-31.86-7.21-48.63,8.11-17.64,23.87-30.78,30.59-49.28,11.22-24.4,12.27-52.89,27.18-75.55,13.73-3.31,30.17-.38,41.16-11.19,9.54-9.72,7.21-24.69,4.66-36.7-9.31-35.43-20.83-70.22-31.19-105.31-3.23-7,1.69-13.41,3.87-19.79,11.14-26,10.24-54.75,11.74-82.41,40.46-3.94,80.81-8.9,121.23-13.29,41.73-5.18,72.88-50.21,62.68-91-6.53-29.46-31.35-53.22-60.84-59.11-5.78-21.92-11-44-19.26-65.15-50-139.69-174.85-250.79-320.73-280.36-87.6-18.88-180.79-11.75-264.19,21.13-131.58,51.9-235.65,172.68-260.16,313-10.1,58-5.93,117.13-6.12,175.68C1305.73,1374.2,1321.27,1401,1345.4,1414.1Zm28.11-91c24-1.27,48.16-.71,72.14-3.26-2.93-28,6.38-62-15.65-84.26-13.85-15.5-36-16.89-55.32-16.14,5.89-77.39,39.71-151.69,92.62-208.26,47.56-50,108.43-88.46,175.8-104.89,79-20.46,164.72-15.39,240.5,15.23a360.13,360.13,0,0,1,170.32,140.11c18.12,28.37,33.36,58.73,44.06,90.71,9.27,29.84,14.33,60.8,18.31,91.73,15.27-1.28,31.38-7.51,46.35-1.73,13.77,6.45,11.75,29.65-2.66,33.89q-222,27.07-444.18,54.19c-112.71,12.77-225.49,27.29-339.06,29.5C1373.59,1347.93,1373.33,1335.47,1373.51,1323.12Z"/><path class="cls-6" d="M1479.91,1256.62c3.57,19.7,2.67,39.86,3.16,59.79q13.07-1,26.19-1.69c-1.08-43-1.72-86.32,4.58-129,6.68-43.31,26.09-84.75,56-116.87,51.12-54.57,126-81.45,199.33-86.82,63.58-1,127,12.65,185.63,37.09,10.88,4.95,21.35,10.92,32.8,14.56-61.78-63.09-148.85-101.52-237.42-102.31-87.45-2.82-176.47,28.37-240.72,88.24a308.34,308.34,0,0,0-94.06,166C1448.28,1194.36,1473.72,1223.4,1479.91,1256.62Z"/><path class="cls-7" d="M1814.13,1021.45c-56.9-7.73-115.26,6-165.89,32.09-43.68,22.93-79.83,62.3-92.77,110.6-12.28,48-9.8,98-9,147.13,178.57-18.17,356.54-41.48,534.66-63-8.44-42.37-12.12-87.6-35.84-124.94-16.52-25.3-44-40.27-70.07-54C1924.81,1044.42,1870.2,1027.38,1814.13,1021.45Z"/><path d="M2259,2078.66c-2.29,27.62,22.55,53,50,52,122.42-1,244.84.27,367.27-.22-3.9,35.73-7.43,71.49-11.67,107.14,30.81,12.2,60.13,27.71,90.64,40.61,26.8,11.15,32.76,42.9,50.44,63.21,5.74,1.91,12,1.46,18,1.76,48.34.3,96.68-.23,145-.26-10.5-70.49-20-141.12-29.65-211.75,112.9-.64,225.83.19,338.72-.94,26.57,1.84,50.71-21.43,49.58-48,.82-197.56-.23-395.12.52-592.69-.34-14.15,1.84-29-4.16-42.41-7.47-19.82-29-32.2-49.77-31q-476.71.51-953.44,0c-11.55-.19-23.64.15-34.19,5.51-18.27,8.67-28.4,29.47-27.51,49.24Q2259,1774.78,2259,2078.66Zm108.38-550.77q426.06-.17,852.18.08c.38,161.57-.37,323.18-.11,484.75-284,0-567.92-.68-851.88.41C2366.85,1851.37,2367.19,1689.65,2367.33,1527.89Z"/><path class="cls-8" d="M1608.53,1650c-26-7.51-53-10.51-79.9-12.43-53.33-2.66-107.19-3.82-160.18,3.79.64,28.68.19,57.39.94,86.1,30-9.46,61.44-13.62,92.58-17.53,34.61-3.18,69.33-6.34,104.12-4.42a544.25,544.25,0,0,1,124.56,22.59c15.91,4.36,31.34,10.55,47.55,13.74a33.37,33.37,0,0,0-6.9-12.31C1698,1693.18,1655.67,1664.88,1608.53,1650Z"/><path class="cls-9" d="M1105.35,2262.71c-2.13-141.83,30.89-288.84,117-403.91,30.47-43,70.37-77.8,110-112.07.45-24.88,0-49.8.15-74.68-40.38,23.61-78.63,50.93-113.3,82.34-47.44,43-91.47,90.68-124.68,145.7-39.22,64.77-65,137-80.88,210.85-12.91,62.18-15.5,125.88-18.77,189.11-.3,188.34.08,376.66-.22,565,37-.15,74,.26,111,0C1104.68,2664.26,1105.54,2463.46,1105.35,2262.71Z"/><path d="M3179.84,1975c-.49-15.77-.6-31.53-.11-47.25-61.93-.15-123.89-.27-185.82,0-.33-75.1.38-150.24-.48-225.34-28.42,0-56.86-.34-85.28.19.19,33.63-.22,67.25-.26,100.88q-72-.45-144,.49c-.23-27,.3-54-.83-81-28-.22-56,0-83.92.19,0,26.8-.07,53.6-.15,80.4-29.8-.38-59.6-.65-89.4-.34q-.28,62.09-.48,124.15c-18.4.22-36.78.37-55.18.3-.15-12.76-.34-25.56-.26-38.32-26.38,0-52.8-.15-79.19,0,0,12.72.08,25.48,0,38.24-15.24,1-31.56-1.61-46.09,1.54-1,15.13-.15,30.33-.34,45.49C2665.29,1974.81,2922.57,1974.17,3179.84,1975Z"/><path class="cls-10" d="M1712.8,2206.19c-9.69-30.21-19.26-61.4-17.42-93.45,2.51-51.64,18.84-104.38,54.2-143.07,23.45-24.92,53.66-46.39,88.46-50.25,49.54-1.43,99.12.45,148.62-1.09a341.33,341.33,0,0,0-98.22-74.46c-48.86-25.94-100.32-46.65-153-63.28-61.78-20.83-125.84-38.36-191.52-38.13-48.12,1.31-96.27,5.48-143.41,15.42-14.37,3-27.47,9.91-39.71,17.83-78.25,49.54-135.18,127.72-170.5,212.39-33.59,79.49-47.74,166.07-49,252-.3,208.33.3,416.7-.3,625q431.17-.22,862.35,0c0-38.28,0-76.56.26-114.84-66.73-102.92-132.9-206.46-189-315.68C1776.56,2360.41,1740.19,2285,1712.8,2206.19Z"/><path class="cls-11" d="M2065.25,2754.4c42.63-2.21,81.14-23.38,118-43.08,64.44-36.48,123.7-81.14,181.72-126.89-83.77-147.43-167.39-295-249.47-443.39-34.86-61.52-67.93-124.08-104.71-184.47-54.45-.86-108.88-.26-163.3-.49-18.8-1-36,8.82-50.93,19.07-39.33,28.6-58.06,77.27-64.21,124-4.92,23.46.86,47.17,7.06,69.77,17,60.24,43.72,117.06,70.06,173.66,63.13,136.53,143.33,264.1,225.38,389.87C2041.83,2743,2050.84,2755.76,2065.25,2754.4Z"/><path class="cls-12" d="M2599.84,2260.27c7.69-3,10.43-10,9.5-17.82-68.57-6.95-137-16.89-205.94-18.7-60.87,1.09-114.09,33.33-166.15,61.18,29.73,54.38,60.35,108.35,90.83,162.36a551.36,551.36,0,0,0,59-24.06c17.6-8.59,38.43-16.59,46.38-36.21,13.59-33.9,13.74-71.09,20.87-106.52a381.16,381.16,0,0,1,56.33,1.39c-4.12,10.43-8.29,20.83-11.74,31.53C2534.91,2300.62,2566.21,2278,2599.84,2260.27Z"/><path class="cls-13" d="M2474.52,2502.72c8.33-7.24,19.86-5,30-5.25,38.84,0,77.72-.19,116.57-.11,12.91-.64,22-11.53,32.61-17.68,26.27-17.94,52.73-35.73,79.61-52.77,26.53-1.76,53.22-.34,79.82-.56,0-14.19.27-28.41-1-42.56-13.74-3.57-26.65-10.59-35.84-21.51-13.1-13.92-19.22-32.76-31.83-46.88-19.37-11.56-40.91-19.1-61-29.31-11.82-4.65-23-12.68-35.61-14.11-45.79,29.88-93,57.91-142.1,82-9.87,5.81-26.15,6.68-28.22,20.38-6.83,24.54-19.63,48.86-41.28,63.39-27.7,17.93-59,29-88.5,43.3,14.56,27.44,30.85,53.94,45.94,81.11C2420,2541.49,2447.69,2522.65,2474.52,2502.72Z"/><path d="M3105.16,2379.69c-85.24-.1-170.51.31-255.78.31.19,15.61.79,31.26.64,46.91,103.55-1,207.13,0,310.68-1-2.06-9.79-3.53-20.38-10.4-28.14C3139.65,2384.35,3121.82,2379,3105.16,2379.69Z"/><path d="M3549.67,2568c-.26-35.16,0-70.37-.41-105.54q-222.15-.1-444.29.34c-120.89.64-241.81-.64-362.63,1-35.54,21.58-69.17,46.65-103.36,70.41-49.05,2.21-98.55-.87-147.68,1.12C2411,2591.86,2336.07,2656,2253.88,2710c-65,44.21-137.22,79.12-214.94,93.38.3,20.6.83,41.21.22,61.82,177.11-.34,354.22,0,531.37-.08-.27-62.45-.49-124.94-.19-187.4,279-.93,558,0,837-.41-.11-36.48-.08-73-.19-109.4C3454.64,2567.39,3502.16,2567.5,3549.67,2568Z"/><rect class="cls-14" x="1407.14" y="4042.47" width="1645.43" height="399.91" rx="3.55"/><text class="cls-15" transform="translate(1674.95 4376.65)">STEP 5<tspan class="cls-16" x="1009.2" y="0"> </tspan></text></svg>